<svg xmlns="http://www.w3.org/2000/svg" viewBox="0 0 510.31 452.72">
  <defs>
    <style>.cls-1{fill:none;stroke:#000;stroke-linecap:round;stroke-linejoin:round;stroke-width:5px;}#hoverTip{display:none;}</style>
  </defs>
  <g id="duck">
    <path class="cls-1" d="M218.58,206.41c-4.64,2.07-9.73,1.48-14.52,1.78-11.86.75-23.62,2.53-35.47,3.32-7.54.5-15,2-22.52,2.85-3.43.38-3.53,2.35-3.53,5q.09,64.5,0,129v96.5c0,5.58,0,5.28,5.51,4.57,9.63-1.24,19.37-1.74,29-3.17,8.49-1.26,17.07-1.34,25.54-2.77,4.57-.77,9.32-.58,14-1a472.33,472.33,0,0,1,59.48-.93c15.21.63,30.62,2,44.94,7.95a8.5,8.5,0,0,0,7-.3c11.58-4.8,23.8-5.68,36.05-7,15.5-1.61,31-1.18,46.5-.69,12.67.4,25.37,1.19,38,2.55,8.29.88,16.64,1.66,25,2.33,9,.73,18,2.1,27,3.47,3.57.55,5.07-.56,5-4.07,0-.83,0-1.66,0-2.5v-222c0-6.23,0-6-6.49-7-17.92-2.85-36-4.32-54-6.05-11.5-1.11-23-1.82-34.51-2-6-.07-12,.31-18-.75-5.53-1-11.23,1-17,.9a139.18,139.18,0,0,0-49,7.45c-1.89.66-4,.95-5.47.34-15.76-6.48-32.32-7.84-49.05-7.79-5.73,0-11.43-1.82-17-.93-7.88,1.27-15.7.42-23.53.84-2.83.15-5.69-.39-8.51.45-1.21.36-2.41-.32-3.49-1"/>
    <path class="cls-1" d="M502.08,119.41c4-3.62,4.95-8.44,5.52-13.49,1.31-11.75-3.73-20.82-11.48-29-13.35-14.16-29.07-25.41-44.56-36.95-11.09-8.26-22.14-16.6-33.53-24.45C406.84,7.77,394.08,4.61,380.59,3.27a146.92,146.92,0,0,0-36,.72,153.27,153.27,0,0,0-39,11.53,236,236,0,0,0-45.07,25.36,88,88,0,0,0-25,28.51,64.81,64.81,0,0,1-6,9c-5.23,6.47-12.62,6.71-19.95,6-11.82-1.22-23.7-.74-35.52-1.86s-23.66-1.65-35.49-2.59c-8.68-.7-17.34-1.56-26-2.5-9.84-1.07-19.64-2.61-29.51-3.41-17.12-1.4-34.21-3.65-51.51-1.7-7.22.82-14.3,1.52-21,4.61-11.8,5.45-9.06,18.15-2,24,6.2,5.12,14,6.15,21.49,7.48,15.81,2.8,31.59,5.86,47.51,7.91s31.55,4.78,47.47,6.26c7.67.72,15.92.51,22.88,3.21,12.59,4.91,25.48,3.21,38.15,3.81,11.28.53,22.64,1.26,34,1.1"/>
    <path class="cls-1" d="M177.58,129.41c-7,1-34.67,1.65-39,1.86-9.31.46-18.66.11-28,.15-19.34.09-38.67.85-58,1.25-8.93.18-18,1.85-26.06,7.16C18.7,145,19.18,160.1,28,164a72.46,72.46,0,0,0,18.05,5.33,202.87,202.87,0,0,0,39,2.41,341.84,341.84,0,0,1,40.5.78c7.85.66,15.79,1,23.51,2.86a8.06,8.06,0,0,0,2.5,0c8.87-.68,17.69.67,26.48,1.26,11.84.79,23.71,1.42,35.53,2.69,2.89.31,3.11,1.89,3,4.06-.41,7.64,1,15.08,2.5,22.5"/>
    <path class="cls-1" d="M486.33,105.16a59,59,0,0,1,15,14.41c5.05,7,5.15,15.17,1.29,23.37-7.85,16.65-20.23,29-35,39.59-6.14,4.39-12.81,7.95-18.64,12.81-3.68,3.08-6.81,6.29-7.94,11.07"/>
    <path class="cls-1" d="M373.58,85.41c1.33,1.17,5.65,2.36,7,3.5,4.2,3.53,4.21,6.31-.54,8.41-4.45,2-7.91,5-11.52,8-7.2,6.17-15.67,10.56-24.94,8.06-4.95-1.33-10.75-5.75-13-11"/>
    <path class="cls-1" d="M368.58,71.41c0,2.72.17,5.44-1,8a22.63,22.63,0,0,0-2,11c.61,7.57-6.29,12.9-14,13-10.25.13-18-6-15-19"/>
    <path class="cls-1" d="M379.58,75.41a8.84,8.84,0,0,1-.48,6c-1.82,3.41-4,4.78-8.06,3.07-6.26-2.64-18.69-5.44-25.46-4.09-5,1-16.4,5.34-16,8"/>
    <path class="cls-1" d="M342.58,68.41c-.63,7.16-1,7,3,12"/>
    <path class="cls-1" d="M356.08,68.41c-1.5,5-2.5,7-.5,12"/>
    <path class="cls-1" d="M330.58,75.41c-.79,4.54,2.09,5.59,4,9"/>
    <path d="M357.58,93.91a3.5,3.5,0,0,1,0-7,3.46,3.46,0,0,1,2.35.93,9,9,0,1,0-.88,5.74A3.44,3.44,0,0,1,357.58,93.91Z"/>
  </g>
</svg>