<svg id="Layer_2" xmlns="http://www.w3.org/2000/svg" viewBox="0 0 140.01 124.18">
  <defs>
    <style>
      .cls-2{fill:#fff;}.cls-1{fill:none;stroke:#000;stroke-linecap:round;stroke-linejoin:round;stroke-width:1.37px;}
    </style>
  </defs>
  <g id="duck">
    <path id="bg" class="cls-2" d="m120.9,57.02l.11-.39c.31-1.31,1.17-2.19,2.18-3.04,1.6-1.33,3.43-2.31,5.11-3.51,4.05-2.91,7.45-6.29,9.6-10.86.92-1.96,1.02-3.91.11-5.65,1.05-1.01,1.1-3.14,1.25-4.5.36-3.22-1.02-5.71-3.15-7.96-3.66-3.88-7.98-6.97-12.22-10.14-3.04-2.27-6.07-4.55-9.2-6.71-3.07-2.13-6.57-2.99-10.27-3.36-3.29-.34-6.6-.27-9.88.2-3.69.57-7.29,1.64-10.7,3.16-4.36,1.86-8.51,4.19-12.36,6.96-2.83,2.08-5.17,4.75-6.86,7.82-.48.87-1.03,1.69-1.65,2.47-1.43,1.78-3.46,1.84-5.47,1.65-3.24-.33-6.5-.2-9.74-.51s-6.49-.45-9.74-.71c-2.38-.19-4.76-.43-7.13-.69-2.7-.29-5.39-.72-8.1-.94-4.7-.38-9.39-1-14.13-.47-1.98.22-3.92.42-5.76,1.26-3.24,1.5-2.49,4.98-.55,6.58,1.7,1.4,3.84,1.69,5.9,2.05,4.34.77,8.67,1.61,13.03,2.17,4.37.56,8.66,1.31,13.02,1.72,2.1.2,4.37.14,6.28.88,2.65,1.03,5.35,1,8.04,1-2.06.27-9.42.44-10.59.5-2.55.13-5.12.03-7.68.04-5.31.02-10.61.23-15.91.34-2.45.05-4.94.51-7.15,1.96-2.15,1.42-2.01,5.56.41,6.63,1.58.7,3.24,1.19,4.95,1.46,3.54.56,7.12.79,10.7.66,3.7-.15,7.41-.08,11.11.21,2.15.18,4.33.27,6.45.78.23.04.46.04.69,0,2.43-.19,4.85.18,7.26.35,3.25.22,6.5.39,9.75.74.79.09.85.52.82,1.11-.11,2.1.27,4.14.69,6.17,0,0,.02,0,.04.02l-.18.12c-1.27.57-2.67.41-3.98.49-3.25.21-6.48.69-9.73.91-2.07.14-4.12.55-6.18.78-.94.1-.97.64-.97,1.37.02,11.8.02,23.59,0,35.39v26.47c0,1.53,0,1.45,1.51,1.25,2.64-.34,5.31-.48,7.96-.87,2.33-.35,4.68-.37,7.01-.76,1.25-.21,2.56-.16,3.84-.27,5.43-.43,10.88-.51,16.32-.26,4.17.17,8.4.55,12.33,2.18.62.25,1.32.22,1.92-.08,3.18-1.32,6.53-1.56,9.89-1.92,4.25-.44,8.5-.32,12.76-.19,3.48.11,6.96.33,10.43.7,2.27.24,4.57.46,6.86.64,2.47.2,4.94.58,7.41.95.98.15,1.39-.15,1.37-1.12v-61.59c0-1.71,0-1.65-1.78-1.92-4.92-.78-9.88-1.19-14.81-1.66"/>
    <path id="book" class="cls-1" d="m59.98,56.63c-1.27.57-2.67.41-3.98.49-3.25.21-6.48.69-9.73.91-2.07.14-4.12.55-6.18.78-.94.1-.97.64-.97,1.37.02,11.8.02,23.59,0,35.39v26.47c0,1.53,0,1.45,1.51,1.25,2.64-.34,5.31-.48,7.96-.87,2.33-.35,4.68-.37,7.01-.76,1.25-.21,2.56-.16,3.84-.27,5.43-.43,10.88-.51,16.32-.26,4.17.17,8.4.55,12.33,2.18.62.25,1.32.22,1.92-.08,3.18-1.32,6.53-1.56,9.89-1.92,4.25-.44,8.5-.32,12.76-.19,3.48.11,6.96.33,10.43.7,2.27.24,4.57.46,6.86.64,2.47.2,4.94.58,7.41.95.98.15,1.39-.15,1.37-1.12v-61.59c0-1.71,0-1.65-1.78-1.92-4.92-.78-9.88-1.19-14.81-1.66-3.15-.3-6.31-.5-9.47-.55-1.65-.02-3.29.09-4.94-.21-1.52-.27-3.08.27-4.66.25-4.57-.13-9.12.56-13.44,2.04-.52.18-1.1.26-1.5.09-4.32-1.78-8.87-2.15-13.46-2.14-1.57,0-3.14-.5-4.66-.26-2.16.35-4.31.12-6.46.23-.78.04-1.56-.11-2.33.12-.33.1-.66-.09-.96-.27l-.26.18Z"/>
    <path id="head" class="cls-1" d="m121.01,56.63c.31-1.31,1.17-2.19,2.18-3.04,1.6-1.33,3.43-2.31,5.11-3.51,4.05-2.91,7.45-6.29,9.6-10.86,1.05-2.23,1.03-4.44-.31-6.35-.01-.02-.03-.04-.04-.06-1.13-1.55-4.52-4.27-4.12-3.95,3.54,2.76,4.54,4.76,4.54,4.76,1.1-.99,1.14-3.17,1.3-4.55.36-3.22-1.02-5.71-3.15-7.96-3.66-3.88-7.98-6.97-12.22-10.14-3.04-2.27-6.07-4.55-9.2-6.71-3.07-2.13-6.57-2.99-10.27-3.36-3.29-.34-6.6-.27-9.88.2-3.69.57-7.29,1.64-10.7,3.16-4.36,1.86-8.51,4.19-12.36,6.96-2.83,2.08-5.17,4.75-6.86,7.82-.48.87-1.03,1.69-1.65,2.47-1.43,1.77-3.46,1.84-5.47,1.65-3.24-.33-6.5-.2-9.74-.51s-6.49-.45-9.74-.71c-2.38-.19-4.76-.43-7.13-.69-2.7-.29-5.39-.72-8.1-.94-4.7-.38-9.39-1-14.13-.47-1.98.22-3.92.42-5.76,1.26-3.24,1.5-2.49,4.98-.55,6.58,1.7,1.4,3.84,1.69,5.9,2.05,4.34.77,8.67,1.61,13.03,2.17s8.66,1.31,13.02,1.72c2.1.2,4.37.14,6.28.88,3.45,1.35,6.99.88,10.47,1.05,3.09.15,6.21.35,9.33.3l-11.65-.36c-1.92.27-9.51.45-10.7.51-2.55.13-5.12.03-7.68.04-5.31.02-10.61.23-15.91.34-2.45.05-4.94.51-7.15,1.96-2.15,1.42-2.01,5.56.41,6.63,1.58.7,3.24,1.19,4.95,1.46,3.54.56,7.12.79,10.7.66,3.7-.15,7.41-.08,11.11.21,2.15.18,4.33.27,6.45.78.23.04.46.04.69,0,2.43-.19,4.85.18,7.26.35,3.25.22,6.5.39,9.75.74.79.09.85.52.82,1.11-.11,2.1.27,4.14.69,6.17,0,0,.75.34,1.08.24.77-.23,1.56-.08,2.33-.12,2.15-.12,4.29.12,6.46-.23,1.53-.24,3.09.26,4.66.26,4.59-.01,9.13.36,13.46,2.14.4.17.98.09,1.5-.09,4.32-1.48,8.88-2.17,13.44-2.04,1.58.03,3.15-.52,4.66-.25,1.65.29,3.29.19,4.94.21,2.75.04,5.5.2,8.26.44l.11-.39Z"/>
    <g id="eye">
      <path class="cls-1" d="m90.43,24.25c-.11-.73,3.02-1.92,4.39-2.19,1.06-.21,2.19-.07,3.25.1,1.14.19,2.27.46,3.36.85.55.2,1.09.42,1.61.68.46.23.99.37,1.4.71,1.15.97,1.15,1.73-.15,2.31-1.22.55-2.17,1.37-3.16,2.19-1.98,1.69-4.3,2.9-6.84,2.21-1.36-.36-2.95-1.58-3.57-3.02"/>
      <path class="cls-1" d="m101.13,19.59c0,.75.05,1.49-.27,2.19-.43.94-.62,1.98-.55,3.02.17,2.08-1.73,3.54-3.84,3.57-.37,0-.74-.02-1.1-.08-.34-.06-.68-.15-1-.27-.3-.12-.59-.28-.85-.47s-.48-.42-.67-.67-.35-.56-.46-.87c-.12-.35-.19-.71-.21-1.08-.03-.43,0-.86.07-1.28.03-.16.05-.33.1-.48.05-.13.12-.25.18-.38"/>
      <path class="cls-1" d="m104.14,20.69c.15.55.1,1.13-.13,1.65-.37.7-.8,1.09-1.47,1.04"/>
      <path class="cls-1" d="m93.99,18.77c-.17,1.96-.27,1.92.82,3.29"/>
      <path class="cls-1" d="m97.7,18.77c-.41,1.37-.69,1.92-.14,3.29"/>
      <path class="cls-1" d="m90.7,20.69c-.22,1.25.57,1.53,1.1,2.47"/>
      <path id="pupil" d="m98.11,25.77c-.53,0-.96-.43-.96-.96s.43-.96.96-.96c.24,0,.47.09.64.26-.24-1.34-1.52-2.24-2.86-2s-2.24,1.52-2,2.86c.24,1.34,1.52,2.24,2.86,2,.75-.13,1.4-.61,1.76-1.29-.13.06-.26.09-.4.09Z"/>
    </g>
  </g>
</svg>