<?xml version="1.0" standalone="no"?>
<!DOCTYPE svg PUBLIC "-//W3C//DTD SVG 20010904//EN"
 "http://www.w3.org/TR/2001/REC-SVG-20010904/DTD/svg10.dtd">
<svg version="1.0" xmlns="http://www.w3.org/2000/svg"
 width="512.000000pt" height="512.000000pt" viewBox="0 0 512.000000 512.000000"
 preserveAspectRatio="xMidYMid meet">
<metadata>
Created by potrace 1.14, written by Peter Selinger 2001-2017
</metadata>
<g transform="translate(0.000000,512.000000) scale(0.100000,-0.100000)"
fill="#000000" stroke="none">
<path d="M3490 4819 c-223 -29 -481 -125 -719 -266 -53 -32 -100 -61 -106 -65
-5 -4 -44 -34 -85 -65 -104 -79 -131 -109 -226 -254 -57 -87 -92 -131 -114
-141 -32 -16 -139 -17 -400 -3 -125 6 -150 8 -310 21 -47 3 -102 7 -122 7 -21
0 -38 3 -38 6 0 5 -35 8 -157 14 -18 1 -33 4 -33 7 0 3 -19 5 -43 6 -23 0 -71
4 -107 8 -36 4 -83 9 -105 12 -22 2 -58 6 -80 9 -77 9 -161 16 -255 20 -52 2
-97 5 -100 6 -3 1 -9 1 -14 0 -6 -1 -51 -4 -100 -7 -120 -5 -115 -5 -166 -16
-25 -5 -49 -11 -55 -12 -29 -5 -102 -50 -119 -72 -43 -60 -28 -165 32 -221 56
-53 75 -61 192 -83 83 -16 335 -59 370 -64 19 -3 49 -7 65 -10 17 -3 48 -7 70
-11 23 -3 51 -7 64 -10 13 -2 49 -7 80 -11 31 -3 58 -8 61 -9 7 -4 130 -19
163 -19 15 -1 27 -3 27 -6 0 -3 10 -5 23 -6 12 0 49 -3 82 -7 33 -4 81 -10
107 -13 106 -12 100 -21 -17 -21 -158 -2 -800 -14 -845 -16 -19 -2 -39 -5 -45
-8 -5 -2 -23 -4 -40 -4 -16 0 -32 -2 -35 -5 -3 -3 -30 -13 -60 -24 -53 -18
-120 -73 -129 -106 -11 -43 -6 -117 11 -151 23 -48 93 -83 217 -109 124 -25
225 -32 561 -35 157 -2 296 -6 310 -8 23 -5 73 -11 185 -22 22 -2 90 -7 150
-10 61 -3 137 -7 170 -10 33 -2 98 -7 145 -10 86 -5 193 -16 197 -19 1 -1 3
-31 4 -66 1 -36 6 -83 11 -104 5 -22 5 -43 1 -47 -4 -4 -42 -10 -83 -13 -41
-4 -95 -9 -120 -11 -25 -3 -75 -7 -111 -10 -36 -3 -74 -7 -85 -9 -10 -2 -53
-7 -94 -11 -100 -9 -250 -32 -257 -38 -8 -8 -5 -2375 3 -2388 6 -10 67 -7 134
6 9 2 50 6 91 10 41 3 81 8 89 10 16 4 124 15 205 20 28 2 64 6 80 9 115 19
731 29 882 14 91 -10 211 -34 290 -60 l61 -20 64 21 c85 28 191 49 291 58 164
16 636 9 862 -12 22 -2 69 -6 105 -9 72 -7 152 -15 190 -21 14 -2 54 -7 90
-11 75 -7 105 -11 178 -20 46 -6 52 -5 54 12 1 10 2 549 3 1197 l2 1179 -21 8
c-12 5 -64 14 -116 20 -52 6 -106 13 -120 15 -14 2 -54 7 -90 10 -36 4 -83 9
-105 11 -89 9 -131 13 -157 13 -16 1 -28 6 -28 11 0 19 73 86 135 125 213 133
361 274 438 415 62 114 78 198 49 270 -7 18 -6 32 3 50 37 72 48 195 24 269
-39 120 -198 277 -524 516 -117 85 -220 162 -240 178 -144 115 -280 184 -400
202 -151 24 -331 30 -445 14z m377 -52 c4 -3 24 -8 43 -11 56 -9 72 -13 124
-31 51 -17 167 -84 210 -119 13 -12 95 -73 181 -136 261 -191 382 -288 473
-379 114 -112 126 -130 155 -215 14 -41 8 -128 -12 -179 l-11 -28 -56 56 c-71
70 -107 91 -124 70 -13 -15 -15 -12 89 -110 100 -92 117 -171 64 -287 -42 -90
-84 -150 -163 -228 -80 -80 -124 -115 -265 -210 -114 -76 -147 -106 -168 -152
l-12 -28 -130 7 c-257 13 -599 7 -730 -12 -22 -3 -55 -7 -73 -10 -18 -2 -76
-16 -128 -31 -73 -20 -100 -24 -117 -16 -12 5 -49 17 -82 26 -72 18 -105 24
-265 41 -74 8 -487 12 -558 5 -31 -3 -64 -4 -73 -2 -21 4 -28 40 -35 162 -3
52 -9 98 -13 103 -4 4 -39 9 -77 12 -38 2 -105 7 -149 10 -44 3 -102 8 -130
10 -27 2 -106 6 -175 10 -69 3 -138 8 -155 10 -16 2 -61 7 -100 10 -38 4 -79
10 -90 12 -11 3 -148 6 -305 8 -344 4 -452 11 -568 35 -140 28 -190 61 -193
127 -4 74 15 105 86 135 93 41 156 46 570 53 165 2 442 7 615 11 347 7 543 8
636 4 71 -3 84 2 77 30 -5 17 -14 20 -72 21 -36 0 -86 2 -111 4 -25 2 -90 6
-145 10 -55 4 -116 9 -135 10 -19 2 -64 6 -100 9 -36 3 -87 8 -115 10 -27 3
-75 8 -105 11 -30 3 -66 8 -80 10 -14 3 -52 7 -85 10 -62 7 -80 9 -155 20 -86
13 -95 14 -175 25 -44 6 -91 12 -105 15 -14 2 -43 6 -65 10 -46 6 -394 62
-440 70 -154 27 -234 60 -264 107 -7 11 -14 40 -16 63 -3 36 1 48 25 75 15 17
36 33 47 35 10 2 18 4 18 5 0 1 7 3 15 5 8 2 26 7 40 10 57 14 133 19 260 19
180 -1 294 -9 535 -39 28 -4 66 -8 85 -10 38 -4 115 -12 195 -21 69 -7 137
-13 220 -18 39 -3 102 -8 140 -11 91 -8 201 -14 409 -19 230 -7 225 -9 360
197 64 98 115 156 194 220 12 9 26 17 31 17 5 0 11 4 13 8 7 18 221 151 242
150 5 0 12 4 15 9 6 8 136 74 156 79 6 1 46 17 89 34 96 37 214 69 321 85 75
11 374 13 392 2z m-1028 -2031 c57 -4 107 -8 110 -10 3 -2 30 -7 59 -10 30 -3
57 -8 61 -11 4 -2 22 -7 40 -10 18 -3 55 -14 82 -25 50 -18 51 -18 110 0 98
32 134 40 239 55 178 26 824 21 857 -6 8 -7 13 -7 13 -2 0 6 17 8 43 5 23 -3
61 -6 84 -6 24 -1 43 -3 43 -6 0 -3 24 -6 53 -7 28 -2 68 -5 87 -9 19 -3 53
-7 75 -9 78 -7 160 -16 180 -19 11 -3 29 -5 40 -5 20 -1 20 -8 20 -1153 0
-1011 -2 -1153 -15 -1151 -8 1 -55 7 -105 13 -89 11 -117 14 -225 25 -30 3
-68 7 -85 9 -16 2 -70 7 -120 11 -49 3 -106 8 -125 10 -70 8 -318 17 -450 16
-191 -1 -314 -10 -440 -32 -103 -18 -113 -20 -166 -39 -53 -18 -53 -18 -126 5
-98 31 -157 41 -368 61 -19 1 -116 3 -215 4 -233 1 -429 -9 -695 -35 -25 -3
-70 -7 -100 -10 -61 -6 -127 -13 -180 -20 -19 -2 -60 -7 -90 -11 -30 -3 -59
-8 -63 -11 -5 -3 -8 10 -7 28 1 19 1 39 0 44 -1 6 -2 14 0 20 2 12 2 287 -1
300 -1 6 -1 14 1 20 2 12 2 287 -1 300 -1 6 -1 14 0 19 3 12 2 447 0 461 -1 6
0 14 1 20 2 11 1 377 -1 385 -1 3 0 10 1 15 2 12 2 126 -1 140 -1 6 -1 14 0
18 2 12 2 370 0 382 -1 6 0 15 1 20 1 6 2 35 1 67 -1 31 2 59 8 62 10 7 61 14
216 30 28 3 70 8 95 12 42 5 69 8 210 20 30 2 75 6 100 8 25 3 110 8 190 11
80 4 146 8 147 9 4 4 315 -2 412 -8z"/>
<path d="M3422 4138 c-14 -14 -16 -72 -2 -97 8 -16 5 -20 -22 -25 -36 -7 -50
3 -54 36 -1 13 -3 26 -3 31 -2 14 -42 7 -48 -10 -4 -9 1 -37 10 -62 10 -27 12
-47 7 -49 -6 -2 -10 -14 -10 -27 0 -17 5 -22 22 -21 15 1 24 -5 26 -19 10 -62
84 -133 142 -136 83 -5 136 12 164 53 9 12 16 18 16 13 0 -6 9 8 19 30 10 22
18 54 17 72 -1 30 1 32 24 26 32 -8 90 -43 90 -54 0 -5 -21 -20 -47 -33 -27
-14 -68 -43 -93 -66 -64 -58 -152 -79 -224 -55 -21 8 -58 32 -81 55 -39 38
-43 40 -59 25 -15 -15 -15 -18 2 -40 72 -91 167 -122 278 -90 38 11 78 33 113
61 29 24 75 56 102 70 72 40 84 95 29 128 -34 20 -36 28 -14 50 8 9 13 16 9
16 -3 0 -2 8 3 18 6 9 6 27 1 39 -11 30 -49 20 -49 -13 0 -29 -34 -66 -54 -58
-11 4 -13 18 -9 60 5 45 2 55 -12 60 -18 7 -49 -21 -40 -37 3 -4 1 -19 -5 -33
-8 -22 -15 -25 -42 -22 -35 4 -33 0 -37 93 -1 15 -7 21 -21 20 -21 -1 -27 -15
-32 -72 -2 -24 -8 -31 -30 -33 -30 -4 -51 24 -46 61 5 39 -17 58 -40 35z m229
-175 c0 -10 2 -28 3 -40 2 -13 -1 -23 -6 -23 -5 0 -7 -4 -4 -9 7 -11 -32 -55
-61 -70 -33 -17 -94 -13 -130 9 -36 22 -49 41 -56 88 -4 25 -1 35 14 43 18 9
19 7 15 -17 -14 -76 76 -133 149 -94 27 15 41 40 22 40 -24 0 -37 22 -26 42 8
14 17 18 34 14 19 -5 22 -3 18 14 -4 14 0 20 11 20 9 0 16 -8 17 -17z"/>
</g>
</svg>
